<svg xmlns="http://www.w3.org/2000/svg" xmlns:xlink="http://www.w3.org/1999/xlink" viewBox="0 0 260.85 201.66"><defs><style>.cls-1{fill:#fcfcfc;}.cls-2{fill:#ebebeb;}.cls-3{fill:#ff7272;}.cls-4{fill:#ffd179;}.cls-5{fill:#aee28e;}.cls-6{fill:#e6e6e6;}.cls-7{fill:#fff;}.cls-8{fill:#bec0be;}.cls-9{fill:#f4f4f4;}.cls-10{fill:#fb952c;}.cls-11{fill:#f0f0f0;}.cls-12{fill:none;stroke:#f4f4f4;}.cls-13{fill:url(#linear-gradient);}.cls-14{fill:#e1e1e5;}.cls-15{fill:#f1f2f2;}.cls-16{fill:#bcbec0;}.cls-17{fill:url(#linear-gradient-2);}.cls-18{fill:#2a2f21;}.cls-19{fill:#4d534d;}.cls-20{fill:#edcc72;}.cls-21{fill:#0c110b;}.cls-22{fill:#f48067;}.cls-23{fill:#f7fbfd;}.cls-24{fill:#2e1a14;}.cls-25{fill:#1e47b1;}.cls-26{fill:#f8b3a4;}.cls-27{fill:#2b2b72;}.cls-28{fill:#594a42;}.cls-29{fill:#231f20;}.cls-30{fill:#c3ccd0;}</style><linearGradient id="linear-gradient" x1="-2303.48" y1="166.96" x2="-2303.48" y2="167.12" gradientTransform="matrix(258.28, 0, 0, -162.39, 595033.95, 27275.38)" gradientUnits="userSpaceOnUse"><stop offset="0" stop-color="#9d9e9f"/><stop offset="1" stop-color="#d1d3d4"/></linearGradient><linearGradient id="linear-gradient-2" x1="-1974.55" y1="9.37" x2="-1974.56" y2="8.78" gradientTransform="matrix(5.6, 0, 0, -4.2, 11231.28, 139.7)" gradientUnits="userSpaceOnUse"><stop offset="0" stop-color="#ffbc53"/><stop offset="0.08" stop-color="#f8c15d"/><stop offset="0.23" stop-color="#f2c769"/><stop offset="0.43" stop-color="#eecb70"/><stop offset="1" stop-color="#edcc72"/></linearGradient></defs><g id="Layer_2" data-name="Layer 2"><g id="Layer_4" data-name="Layer 4"><g id="Group_334" data-name="Group 334"><g id="Group_330" data-name="Group 330"><path id="Rectangle_128-2" data-name="Rectangle 128-2" class="cls-1" d="M104.55,4.28h128v75a1.89,1.89,0,0,1-1.9,1.9H106.46a1.9,1.9,0,0,1-1.91-1.9h0v-75Z"/></g><path id="Rectangle_129" data-name="Rectangle 129" class="cls-2" d="M106,0H231.16a1.42,1.42,0,0,1,1.42,1.43h0V4.52h-128V1.43A1.43,1.43,0,0,1,106,0Z"/><circle id="Ellipse_24" data-name="Ellipse 24" class="cls-3" cx="113.45" cy="2.2" r="0.95"/><circle id="Ellipse_25" data-name="Ellipse 25" class="cls-4" cx="110.56" cy="2.2" r="0.95"/><circle id="Ellipse_26" data-name="Ellipse 26" class="cls-5" cx="107.67" cy="2.2" r="0.95"/><path id="Rectangle_130" data-name="Rectangle 130" class="cls-6" d="M104.55,4.52h22.61V79.25a1.9,1.9,0,0,1-1.9,1.9h-18.8a1.9,1.9,0,0,1-1.91-1.9h0V4.52Z"/><g id="Group_331" data-name="Group 331"><path id="Rectangle_131-2" data-name="Rectangle 131-2" class="cls-7" d="M135.25,9.52h60.69V37.36A1.92,1.92,0,0,1,194,39.27H137.16a1.91,1.91,0,0,1-1.91-1.91Z"/></g><g id="Group_332" data-name="Group 332"><path id="Rectangle_132-2" data-name="Rectangle 132-2" class="cls-7" d="M135.25,43.79h60.69V71.63a1.91,1.91,0,0,1-1.91,1.9H137.16a1.9,1.9,0,0,1-1.91-1.9Z"/></g><g id="Group_333" data-name="Group 333"><path id="Rectangle_536-2" data-name="Rectangle 536-2" class="cls-7" d="M205.46,32.84h21.89V48.31a1.9,1.9,0,0,1-1.9,1.9H207.36a1.9,1.9,0,0,1-1.9-1.9V32.84Z"/></g><path id="Rectangle_134" data-name="Rectangle 134" class="cls-7" d="M137.16,78.77H194a1.91,1.91,0,0,1,1.91,1.9v.48H135.25v-.48A1.9,1.9,0,0,1,137.16,78.77Z"/><path id="Rectangle_135" data-name="Rectangle 135" class="cls-2" d="M108.12,9.52h15.47a1.19,1.19,0,0,1,1.19,1.19h0a1.19,1.19,0,0,1-1.19,1.19H108.12a1.19,1.19,0,0,1-1.19-1.19h0a1.19,1.19,0,0,1,1.19-1.19Z"/><path id="Rectangle_136" data-name="Rectangle 136" class="cls-8" d="M108.24,42.83h15.23a1.31,1.31,0,0,1,1.31,1.31h0a1.3,1.3,0,0,1-1.31,1.31H108.24a1.31,1.31,0,0,1-1.31-1.31h0A1.31,1.31,0,0,1,108.24,42.83Z"/><path id="Rectangle_137" data-name="Rectangle 137" class="cls-9" d="M108.24,49.74h15.23a1.3,1.3,0,0,1,1.31,1.31h0a1.31,1.31,0,0,1-1.31,1.31H108.24a1.31,1.31,0,0,1-1.31-1.31h0A1.31,1.31,0,0,1,108.24,49.74Z"/><path id="Rectangle_537" data-name="Rectangle 537" class="cls-9" d="M208.91,40.69h15.23a1.31,1.31,0,0,1,1.3,1.31h0a1.3,1.3,0,0,1-1.3,1.31H208.91A1.3,1.3,0,0,1,207.6,42h0A1.31,1.31,0,0,1,208.91,40.69Z"/><path id="Rectangle_538" data-name="Rectangle 538" class="cls-9" d="M208.79,34.75h15.47a1.18,1.18,0,0,1,1.18,1.19h0a1.18,1.18,0,0,1-1.18,1.19H208.79a1.19,1.19,0,0,1-1.19-1.19h0a1.19,1.19,0,0,1,1.19-1.19Z"/><path id="Rectangle_139" data-name="Rectangle 139" class="cls-9" d="M107.89,55h15.94a1,1,0,0,1,1,1h0a1,1,0,0,1-1,1H107.89a1,1,0,0,1-1-1h0a1,1,0,0,1,.95-1Z"/><path id="Rectangle_535" data-name="Rectangle 535" class="cls-9" d="M208.79,45.93h15.47a1.18,1.18,0,0,1,1.18,1.19h0a1.18,1.18,0,0,1-1.18,1.19H208.79a1.19,1.19,0,0,1-1.19-1.19h0a1.19,1.19,0,0,1,1.19-1.19Z"/><path id="Rectangle_141" data-name="Rectangle 141" class="cls-8" d="M107.65,14h16.42a.71.71,0,0,1,.71.71h0a.71.71,0,0,1-.71.72H107.65a.71.71,0,0,1-.72-.71h0a.71.71,0,0,1,.72-.71Z"/><path id="Rectangle_142" data-name="Rectangle 142" class="cls-10" d="M109.91,20h14a.83.83,0,0,1,.83.83h0a.84.84,0,0,1-.83.84h-14a.85.85,0,0,1-.84-.84h0a.84.84,0,0,1,.84-.83Z"/><path id="Rectangle_143" data-name="Rectangle 143" class="cls-9" d="M141.32,14h48.55a1.07,1.07,0,0,1,1.07,1.07h0a1.07,1.07,0,0,1-1.07,1.07H141.32a1.07,1.07,0,0,1-1.07-1.07h0A1.07,1.07,0,0,1,141.32,14Z"/><path id="Rectangle_144" data-name="Rectangle 144" class="cls-9" d="M141.08,18.8h49a.83.83,0,0,1,.83.83h0a.84.84,0,0,1-.83.84h-49a.84.84,0,0,1-.83-.84h0a.83.83,0,0,1,.83-.83Z"/><path id="Rectangle_145" data-name="Rectangle 145" class="cls-9" d="M141.32,23.32h22.61A1.07,1.07,0,0,1,165,24.39h0a1.07,1.07,0,0,1-1.07,1.07H141.32a1.07,1.07,0,0,1-1.07-1.07h0a1.07,1.07,0,0,1,1.07-1.07Z"/><path id="Rectangle_146" data-name="Rectangle 146" class="cls-9" d="M141.08,48.55h23.09a.83.83,0,0,1,.83.83h0a.83.83,0,0,1-.83.83H141.08a.83.83,0,0,1-.83-.83h0A.83.83,0,0,1,141.08,48.55Z"/><path id="Rectangle_147" data-name="Rectangle 147" class="cls-9" d="M141.32,27.6h48.55a1.08,1.08,0,0,1,1.07,1.08h0a1.07,1.07,0,0,1-1.07,1.07H141.32a1.07,1.07,0,0,1-1.07-1.07h0a1.07,1.07,0,0,1,1.07-1.08Z"/><path id="Rectangle_148" data-name="Rectangle 148" class="cls-9" d="M141.32,53.07h48.55a1.07,1.07,0,0,1,1.07,1.07h0a1.07,1.07,0,0,1-1.07,1.07H141.32a1.07,1.07,0,0,1-1.07-1.07h0a1.07,1.07,0,0,1,1.07-1.07Z"/><path id="Rectangle_149" data-name="Rectangle 149" class="cls-9" d="M141.32,62.35h48.55a1.07,1.07,0,0,1,1.07,1.07h0a1.07,1.07,0,0,1-1.07,1.07H141.32a1.07,1.07,0,0,1-1.07-1.07h0a1.07,1.07,0,0,1,1.07-1.07Z"/><path id="Rectangle_150" data-name="Rectangle 150" class="cls-9" d="M141.44,32.37h48.31a1.18,1.18,0,0,1,1.19,1.18h0a1.19,1.19,0,0,1-1.19,1.19H141.44a1.19,1.19,0,0,1-1.19-1.19h0A1.18,1.18,0,0,1,141.44,32.37Z"/><path id="Rectangle_151" data-name="Rectangle 151" class="cls-9" d="M141.44,32.37h48.31a1.18,1.18,0,0,1,1.19,1.18h0a1.19,1.19,0,0,1-1.19,1.19H141.44a1.19,1.19,0,0,1-1.19-1.19h0A1.18,1.18,0,0,1,141.44,32.37Z"/><path id="Rectangle_152" data-name="Rectangle 152" class="cls-9" d="M141.08,57.83h49a.83.83,0,0,1,.83.83h0a.83.83,0,0,1-.83.83h-49a.83.83,0,0,1-.83-.83h0a.83.83,0,0,1,.83-.83Z"/><path id="Rectangle_153" data-name="Rectangle 153" class="cls-10" d="M141.44,66.63h13.09a1.19,1.19,0,0,1,1.19,1.19h0A1.19,1.19,0,0,1,154.53,69H141.44a1.19,1.19,0,0,1-1.19-1.19h0A1.19,1.19,0,0,1,141.44,66.63Z"/><path id="Rectangle_154" data-name="Rectangle 154" class="cls-10" d="M159.05,66.63h13.09a1.19,1.19,0,0,1,1.19,1.19h0A1.19,1.19,0,0,1,172.14,69H159.05a1.19,1.19,0,0,1-1.19-1.19h0A1.19,1.19,0,0,1,159.05,66.63Z"/><path id="Rectangle_155" data-name="Rectangle 155" class="cls-10" d="M177.14,66.63h12.61a1.19,1.19,0,0,1,1.19,1.19h0A1.19,1.19,0,0,1,189.75,69H177.14A1.19,1.19,0,0,1,176,67.82h0a1.19,1.19,0,0,1,1.19-1.19Z"/><circle id="Ellipse_27" data-name="Ellipse 27" class="cls-10" cx="107.53" cy="20.59" r="0.59"/><path id="Rectangle_157" data-name="Rectangle 157" class="cls-8" d="M109.79,23.56h14.28a.71.71,0,0,1,.71.71h0a.71.71,0,0,1-.71.72H109.79a.71.71,0,0,1-.71-.71h0a.71.71,0,0,1,.71-.72Z"/><ellipse id="Ellipse_29" data-name="Ellipse 29" class="cls-11" cx="107.53" cy="24.27" rx="0.59" ry="0.71"/><path id="Rectangle_158" data-name="Rectangle 158" class="cls-8" d="M109.79,26.89h14.28a.71.71,0,0,1,.71.71h0a.71.71,0,0,1-.71.72H109.79a.72.72,0,0,1-.72-.72h0A.72.72,0,0,1,109.79,26.89Z"/><ellipse id="Ellipse_30" data-name="Ellipse 30" class="cls-11" cx="107.53" cy="27.6" rx="0.59" ry="0.71"/><path id="Rectangle_159" data-name="Rectangle 159" class="cls-8" d="M109.79,30.7h14.28a.71.71,0,0,1,.71.71h0a.71.71,0,0,1-.71.72H109.79a.72.72,0,0,1-.72-.72h0a.71.71,0,0,1,.72-.71Z"/><ellipse id="Ellipse_31" data-name="Ellipse 31" class="cls-11" cx="107.53" cy="31.41" rx="0.59" ry="0.71"/><path id="Rectangle_160" data-name="Rectangle 160" class="cls-8" d="M109.79,34h14.28a.71.71,0,0,1,.71.71h0a.71.71,0,0,1-.71.72H109.79a.72.72,0,0,1-.72-.72h0A.72.72,0,0,1,109.79,34Z"/><ellipse id="Ellipse_32" data-name="Ellipse 32" class="cls-11" cx="107.53" cy="34.74" rx="0.59" ry="0.71"/><line id="Line_11" data-name="Line 11" class="cls-12" x1="104.55" y1="40.22" x2="127.16" y2="40.22"/><line id="Line_119" data-name="Line 119" class="cls-12" x1="205.46" y1="38.79" x2="227.35" y2="38.79"/><line id="Line_13" data-name="Line 13" class="cls-12" x1="104.55" y1="47.36" x2="127.16" y2="47.36"/></g><path id="Path_123" data-name="Path 123" class="cls-10" d="M18,185.15h0a2.71,2.71,0,0,1,2.7-2.71H21a2.69,2.69,0,0,0,2.51-1.7l.09-.21a2.71,2.71,0,0,0-.55-3l-.21-.21a2.69,2.69,0,0,1,0-3.82h0a2.7,2.7,0,0,1,3.83,0l.24.24a2.74,2.74,0,0,0,3,.57l.17-.07a2.73,2.73,0,0,0,1.73-2.52v-.36a2.7,2.7,0,0,1,2.7-2.7h0a2.7,2.7,0,0,1,2.71,2.7h0v.36A2.73,2.73,0,0,0,39,174.22l.18.07a2.7,2.7,0,0,0,3-.57l.25-.24a2.7,2.7,0,0,1,3.83,0h0a2.71,2.71,0,0,1,0,3.82l-.21.21a2.73,2.73,0,0,0-.56,3,1,1,0,0,1,.09.21,2.71,2.71,0,0,0,2.51,1.7h.3a2.71,2.71,0,0,1,2.7,2.71h0a2.71,2.71,0,0,1-2.7,2.71h-.22a2.7,2.7,0,0,0-2.52,1.73l-.11.27a2.72,2.72,0,0,0,.57,3l.15.15a2.71,2.71,0,0,1,0,3.82h0a2.7,2.7,0,0,1-3.83,0l-.11-.1a2.71,2.71,0,0,0-3-.56l-.31.13a2.7,2.7,0,0,0-1.71,2.51V199a2.7,2.7,0,0,1-2.7,2.71h0a2.7,2.7,0,0,1-2.7-2.71h0v-.15a2.7,2.7,0,0,0-1.71-2.51l-.31-.13a2.73,2.73,0,0,0-3,.55l-.11.11a2.7,2.7,0,0,1-3.83,0h0a2.71,2.71,0,0,1,0-3.82h0l.15-.15a2.72,2.72,0,0,0,.57-3l-.11-.27A2.72,2.72,0,0,0,21,187.85h-.22a2.69,2.69,0,0,1-2.7-2.7ZM33.85,192a6.82,6.82,0,1,0-6.08-7.47,6.46,6.46,0,0,0,0,1.39A6.81,6.81,0,0,0,33.85,192Z"/><path id="Path_124" data-name="Path 124" class="cls-10" d="M44.38,156.25h0a5.74,5.74,0,0,1,5.22-6.2h0l.62-.05a5.77,5.77,0,0,0,5-4.05l.15-.46a5.8,5.8,0,0,0-1.71-6.28l-.48-.41a5.73,5.73,0,0,1-.69-8.08h0a5.74,5.74,0,0,1,8.08-.69l.57.48a5.78,5.78,0,0,0,6.43.66l.35-.18a5.78,5.78,0,0,0,3.19-5.64l-.06-.74a5.74,5.74,0,0,1,5.23-6.21h0a5.74,5.74,0,0,1,6.2,5.23l.06.74a5.79,5.79,0,0,0,4.1,5l.38.12a5.8,5.8,0,0,0,6.23-1.74l.48-.57a5.74,5.74,0,0,1,8.08-.69h0a5.74,5.74,0,0,1,.69,8.08h0l-.4.47a5.79,5.79,0,0,0-.63,6.48c.08.15.15.3.23.44a5.76,5.76,0,0,0,5.61,3.14l.62,0a5.74,5.74,0,0,1,6.2,5.22h0a5.74,5.74,0,0,1-5.23,6.21h0l-.45,0a5.74,5.74,0,0,0-5,4.12l-.18.59a5.77,5.77,0,0,0,1.74,6.21l.34.28a5.75,5.75,0,0,1,.69,8.09h0a5.74,5.74,0,0,1-8.08.69h0l-.24-.21a5.78,5.78,0,0,0-6.46-.64c-.21.11-.42.23-.64.33a5.75,5.75,0,0,0-3.16,5.62l0,.32a5.75,5.75,0,0,1-5.23,6.21h0A5.75,5.75,0,0,1,76,182.93h0l0-.32a5.76,5.76,0,0,0-4.07-5l-.68-.21A5.76,5.76,0,0,0,65,179.1l-.21.25a5.72,5.72,0,0,1-8.08.69h0A5.73,5.73,0,0,1,56,172h0l.28-.34a5.75,5.75,0,0,0,.67-6.4c-.1-.19-.2-.37-.28-.56A5.77,5.77,0,0,0,51,161.44l-.45,0A5.73,5.73,0,0,1,44.38,156.25ZM79,167.93a14.44,14.44,0,1,0-14.18-14.69,13.8,13.8,0,0,0,.25,2.94A14.44,14.44,0,0,0,79,167.93Z"/><path id="Path_125" data-name="Path 125" class="cls-13" d="M163.62,139.23V70.38A6.66,6.66,0,0,0,157,63.72H45.06a6.67,6.67,0,0,0-6.67,6.66h0v72.07H163.62Zm-8.34-4.2H46.73V73.14H155.28Z"/><path id="Path_126" data-name="Path 126" class="cls-14" d="M165.81,149.92H36.2a8.07,8.07,0,0,1-7.93-6.57h0a2.48,2.48,0,0,1,2-2.89,2.42,2.42,0,0,1,.47-.05h140.6a2.48,2.48,0,0,1,2.47,2.48,2.38,2.38,0,0,1,0,.46h0A8.07,8.07,0,0,1,165.81,149.92Z"/><path id="Path_127" data-name="Path 127" class="cls-7" d="M119.17,144.54H82.84a1.3,1.3,0,0,1-1.3-1.3v-2.83h38.93v2.83a1.3,1.3,0,0,1-1.29,1.3Z"/><rect id="Rectangle_759" data-name="Rectangle 759" class="cls-7" x="46.73" y="73.14" width="108.54" height="61.89"/><rect id="Rectangle_760" data-name="Rectangle 760" class="cls-15" x="53.67" y="102.1" width="17.31" height="28.42"/><g id="Group_335" data-name="Group 335"><path id="Rectangle_133-2" data-name="Rectangle 133-2" class="cls-7" d="M114.15,78.57H147.5v23.56a2.9,2.9,0,0,1-2.9,2.9H117.05a2.9,2.9,0,0,1-2.9-2.9h0Z"/></g><path id="Rectangle_138" data-name="Rectangle 138" class="cls-9" d="M119.41,90.53h23.2a2,2,0,0,1,2,2h0a2,2,0,0,1-2,2h-23.2a2,2,0,0,1-2-2h0a2,2,0,0,1,2-2Z"/><path id="Rectangle_140" data-name="Rectangle 140" class="cls-9" d="M119.23,98.5h23.56a1.81,1.81,0,0,1,1.81,1.81h0a1.81,1.81,0,0,1-1.81,1.82H119.23a1.81,1.81,0,0,1-1.82-1.82h0A1.81,1.81,0,0,1,119.23,98.5Z"/><path id="Rectangle_156" data-name="Rectangle 156" class="cls-10" d="M121.94,82.19h21.75a.91.91,0,0,1,.91.91h0a.9.9,0,0,1-.91.9H121.94a.9.9,0,0,1-.9-.9h0a.9.9,0,0,1,.9-.91Z"/><ellipse id="Ellipse_28" data-name="Ellipse 28" class="cls-10" cx="118.5" cy="87.27" rx="1.09" ry="0.91"/><line id="Line_12" data-name="Line 12" class="cls-12" x1="114.15" y1="87.63" x2="147.5" y2="87.63"/><rect id="Rectangle_761" data-name="Rectangle 761" class="cls-15" x="73.53" y="114.34" width="74.82" height="16.17"/><g id="Group_337" data-name="Group 337"><path id="Path_128" data-name="Path 128" class="cls-16" d="M124.87,54.06a3.09,3.09,0,0,0-3.09-3.1H63.06a3.1,3.1,0,0,0-3.1,3.1v1h64.91Z"/><g id="Group_336" data-name="Group 336"><circle id="Ellipse_35" data-name="Ellipse 35" class="cls-7" cx="64.3" cy="53.03" r="1.23"/><circle id="Ellipse_36" data-name="Ellipse 36" class="cls-7" cx="68.87" cy="53.03" r="1.23"/></g><path id="Path_129" data-name="Path 129" class="cls-7" d="M70.09,55.1H60v52.18a1.37,1.37,0,0,0,1.37,1.37H123.5a1.36,1.36,0,0,0,1.37-1.36h0V55.11Z"/><rect id="Rectangle_762" data-name="Rectangle 762" class="cls-15" x="64.38" y="59.9" width="25.95" height="43.81"/><rect id="Rectangle_763" data-name="Rectangle 763" class="cls-15" x="94.51" y="59.9" width="25.95" height="5.86"/><rect id="Rectangle_764" data-name="Rectangle 764" class="cls-15" x="94.51" y="85.17" width="25.95" height="18.55"/><rect id="Rectangle_765" data-name="Rectangle 765" class="cls-15" x="94.51" y="67.83" width="25.95" height="14.9"/></g><path id="Path_130" data-name="Path 130" class="cls-16" d="M77.61,23.69a1.5,1.5,0,0,0-1.51-1.51H1.51A1.51,1.51,0,0,0,0,23.68H0v3.44H77.61Z"/><path id="Path_131" data-name="Path 131" class="cls-14" d="M0,27.13V89.52a1.63,1.63,0,0,0,1.63,1.64H12.11v-64Z"/><g id="Group_345" data-name="Group 345"><g id="Group_338" data-name="Group 338"><path id="Path_132" data-name="Path 132" class="cls-10" d="M8.08,37.12H4c-.2,0-.35-.28-.35-.64s.16-.63.35-.63h4c.19,0,.34.28.34.63S8.27,37.12,8.08,37.12Z"/></g><g id="Group_339" data-name="Group 339"><path id="Path_133" data-name="Path 133" class="cls-10" d="M8.08,44.22H4c-.2,0-.35-.28-.35-.64s.16-.64.35-.64h4c.19,0,.34.29.34.64S8.27,44.22,8.08,44.22Z"/></g><g id="Group_340" data-name="Group 340"><path id="Path_134" data-name="Path 134" class="cls-10" d="M8.08,51.32H4c-.2,0-.35-.29-.35-.64S3.85,50,4,50h4c.19,0,.34.29.34.64S8.27,51.32,8.08,51.32Z"/></g><g id="Group_341" data-name="Group 341"><path id="Path_135" data-name="Path 135" class="cls-10" d="M8.08,58.42H4c-.2,0-.35-.29-.35-.64s.16-.64.35-.64h4c.19,0,.34.29.34.64S8.27,58.42,8.08,58.42Z"/></g><g id="Group_342" data-name="Group 342"><path id="Path_136" data-name="Path 136" class="cls-10" d="M8.08,65.52H4c-.2,0-.35-.29-.35-.64s.16-.64.35-.64h4c.19,0,.34.28.34.64S8.27,65.52,8.08,65.52Z"/></g><g id="Group_343" data-name="Group 343"><path id="Path_137" data-name="Path 137" class="cls-10" d="M8.08,72.61H4c-.2,0-.35-.28-.35-.63s.16-.64.35-.64h4c.19,0,.34.28.34.64S8.27,72.61,8.08,72.61Z"/></g><g id="Group_344" data-name="Group 344"><path id="Path_138" data-name="Path 138" class="cls-10" d="M8.08,79.71H4c-.2,0-.35-.28-.35-.64s.16-.64.35-.64h4c.19,0,.34.29.34.64S8.27,79.71,8.08,79.71Z"/></g></g><path id="Path_139" data-name="Path 139" class="cls-7" d="M77.61,27.13H12.12v64H76a1.63,1.63,0,0,0,1.63-1.64h0Z"/><g id="Group_346" data-name="Group 346"><path id="Path_140" data-name="Path 140" class="cls-9" d="M26.51,37.52H16.3a1,1,0,1,1,0-2.07H26.51a1,1,0,1,1,0,2.07Z"/></g><g id="Group_350" data-name="Group 350"><g id="Group_347" data-name="Group 347"><path id="Path_141" data-name="Path 141" class="cls-9" d="M58.65,45.65h-6.1a1,1,0,0,1-1.06-1,1.05,1.05,0,0,1,1-1.06h6.14a1,1,0,0,1,0,2.07Z"/></g><g id="Group_348" data-name="Group 348"><path id="Path_142" data-name="Path 142" class="cls-9" d="M47.86,45.65H38.59a1,1,0,1,1,0-2.07h9.31a1,1,0,1,1,0,2.07Z"/></g><g id="Group_349" data-name="Group 349"><path id="Path_143" data-name="Path 143" class="cls-9" d="M35.42,45.65H16.3a1,1,0,1,1,0-2.07H35.42a1,1,0,0,1,0,2.07Z"/></g></g><g id="Group_353" data-name="Group 353"><g id="Group_351" data-name="Group 351"><path id="Path_144" data-name="Path 144" class="cls-9" d="M54.41,53.09H27.92A1,1,0,1,1,27.87,51H54.41a1,1,0,1,1,.05,2.07Z"/></g><g id="Group_352" data-name="Group 352"><path id="Path_145" data-name="Path 145" class="cls-9" d="M23.81,53.09H16.3a1,1,0,1,1,0-2.07h7.55a1,1,0,1,1,0,2.07Z"/></g></g><g id="Group_356" data-name="Group 356"><g id="Group_354" data-name="Group 354"><path id="Path_146" data-name="Path 146" class="cls-9" d="M45.86,60.53H39.65a1,1,0,0,1-1.07-1,1,1,0,0,1,1-1.06h6.28a1,1,0,1,1,.06,2.07Z"/></g><g id="Group_355" data-name="Group 355"><path id="Path_147" data-name="Path 147" class="cls-9" d="M35.42,60.53H16.3a1,1,0,1,1-.06-2.07H35.42a1,1,0,0,1,.07,2.07Z"/></g></g><g id="Group_359" data-name="Group 359"><g id="Group_357" data-name="Group 357"><path id="Path_148" data-name="Path 148" class="cls-9" d="M65,68H29a1,1,0,0,1-1.06-1,1,1,0,0,1,1-1.06H65a1,1,0,1,1,0,2.07Z"/></g><g id="Group_358" data-name="Group 358"><path id="Path_149" data-name="Path 149" class="cls-9" d="M25.31,68h-9a1,1,0,1,1,0-2.07h9a1,1,0,0,1,1.06,1,1,1,0,0,1-1,1Z"/></g></g><g id="Group_363" data-name="Group 363"><g id="Group_360" data-name="Group 360"><path id="Path_150" data-name="Path 150" class="cls-9" d="M71.43,75.4H48.56a1,1,0,0,1,0-2.07H71.43a1,1,0,1,1,0,2.07Z"/></g><g id="Group_361" data-name="Group 361"><path id="Path_151" data-name="Path 151" class="cls-9" d="M44.85,75.4H29.91a1,1,0,1,1,0-2.07h15a1,1,0,1,1,0,2.07Z"/></g><g id="Group_362" data-name="Group 362"><path id="Path_152" data-name="Path 152" class="cls-9" d="M25.86,75.4H16.3a1,1,0,1,1,0-2.07h9.6a1,1,0,0,1,.05,2.07Z"/></g></g><g id="Group_367" data-name="Group 367"><g id="Group_364" data-name="Group 364"><path id="Path_153" data-name="Path 153" class="cls-9" d="M57.05,82.84H48.56a1,1,0,1,1,0-2.07h8.53a1,1,0,0,1,0,2.07Z"/></g><g id="Group_365" data-name="Group 365"><path id="Path_154" data-name="Path 154" class="cls-9" d="M44.85,82.84H39.5a1,1,0,0,1-1.06-1,1,1,0,0,1,1-1h5.4a1,1,0,1,1,0,2.07Z"/></g><g id="Group_366" data-name="Group 366"><path id="Path_155" data-name="Path 155" class="cls-9" d="M35.45,82.84H16.3a1,1,0,0,1-1.06-1,1,1,0,0,1,1-1h19.2a1,1,0,1,1,0,2.07Z"/></g></g><path id="Path_156" data-name="Path 156" class="cls-17" d="M175.1,102h-2.72a4.69,4.69,0,0,0,.39-2h2.06A4.19,4.19,0,0,0,175.1,102Z"/><path id="Path_157" data-name="Path 157" class="cls-18" d="M177.21,146.73c-.25.62-.57.88-.73,1.27a.85.85,0,0,0,.06.79c.18.28.27.26.59.3s.75.06,1.13.1c1,.08,1.93.1,2.89.1h1.45a2.41,2.41,0,0,0,.71-.05c.12,0,.17-.11.16-.33,0-.47-.64-.54-1-.66a20.67,20.67,0,0,1-2.32-.58c-.15-.08-.76-.73-.9-.78A11.83,11.83,0,0,0,177.21,146.73Z"/><path id="Path_158" data-name="Path 158" class="cls-18" d="M170.42,146.73c.25.62.57.88.72,1.27a.88.88,0,0,1,0,.79c-.18.28-.27.26-.59.3s-.76.06-1.13.1c-1,.08-1.93.1-2.9.1H165a2.5,2.5,0,0,1-.72-.05c-.11,0-.16-.11-.15-.33,0-.47.63-.54,1-.66a20.67,20.67,0,0,0,2.32-.58c.15-.08.75-.73.9-.78A11.83,11.83,0,0,1,170.42,146.73Z"/><path id="Path_159" data-name="Path 159" class="cls-19" d="M178.64,119v-.06l-10-.14v.1c0,1.33-1.81,20-.44,28.16l2.23-.08c.8-4,2.71-17.63,3.29-21.36.58,3.73,2.63,17.41,3.44,21.37l2.18.07C180.76,138.47,178.64,119,178.64,119Z"/><path id="Path_161" data-name="Path 161" class="cls-10" d="M179.82,103c-.22,6.23-.66,8-1.17,16.19,0,.63-10.08.49-10.08-.14-.41-6.71-1.45-10.35-1.23-15.93a19.15,19.15,0,0,1,3.78-1.14c.33,0,.67-.1,1-.13h.12a16.83,16.83,0,0,1,2.56,0l.35,0,.14,0c.37,0,.72.08,1.06.13A17.92,17.92,0,0,1,179.82,103Z"/><path id="Path_162" data-name="Path 162" class="cls-20" d="M174.82,100.24l-.25.12a.91.91,0,0,1-.37.08h-.94a.85.85,0,0,1-.38-.09l-.23-.1a3.39,3.39,0,0,1-1.93-3.06V93h6v4.16A3.39,3.39,0,0,1,174.82,100.24Z"/><path id="Path_163" data-name="Path 163" class="cls-20" d="M167.81,116.24c.6.11,1.6.06,2.18.23s.63.28.63.74.07.76-.23,1a4.11,4.11,0,0,1-2.33-.07c-.28-.08-.75-.27-.82-.59s.27-.82.47-1.06Z"/><path id="Path_164" data-name="Path 164" class="cls-10" d="M169.69,105.86c-1.73,1.93-4.14,5.78-4.79,6.24a22.12,22.12,0,0,0,3.16,4.17l-.88,1.52a34.41,34.41,0,0,1-5.72-5.06,1,1,0,0,1-.16-1.12c1.21-2.36,4.7-8.66,6.56-8.61Z"/><path id="Path_165" data-name="Path 165" class="cls-20" d="M179.76,116.24c-.6.11-1.6.06-2.18.23s-.63.28-.63.74-.07.76.23,1a4.11,4.11,0,0,0,2.33-.07c.28-.08.75-.27.82-.59s-.27-.82-.47-1.06Z"/><path id="Path_166" data-name="Path 166" class="cls-10" d="M177.88,105.86c1.73,1.94,4.14,5.79,4.79,6.24a21.7,21.7,0,0,1-3.16,4.17l.88,1.52a34.38,34.38,0,0,0,5.72-5.05,1,1,0,0,0,.15-1.13c-1.27-2.38-5-8.74-6.88-8.68Z"/><g id="Group_369" data-name="Group 369"><g id="Group_368" data-name="Group 368"><path id="Path_167" data-name="Path 167" class="cls-21" d="M170.77,97.56a3.35,3.35,0,0,1,0-.71c0-.13,0-.27,0-.41s0-1,0-1.4a1.9,1.9,0,0,1,.43-1.09,1.31,1.31,0,0,1,.44-.33c.53-.2-.09.5.1.48a3,3,0,0,0,1.09-.7c.17,0-.16.85-.12.86a4.22,4.22,0,0,0,3.21-.57c.19-.14,0,.57.22.86s.58.18.6.52c0,1,0,1.62,0,2.62a4.34,4.34,0,0,0,.88-2.47,4.4,4.4,0,0,0-.58-2.56l.6-.14c-.27-.88-1.66-1.26-2.58-1.18a.91.91,0,0,1,.54-.38c-1.9-.75-3.6.94-3.67.92a2.19,2.19,0,0,0-1,.09,1.76,1.76,0,0,0-.82.9,5.27,5.27,0,0,0-.25,1.89,9.43,9.43,0,0,0,.32,1.9,2,2,0,0,0,.27.6Z"/></g></g><path id="Path_168" data-name="Path 168" class="cls-20" d="M175,103.21l-1.4.24-1.56-.24v-1.43c.14,0,.32,0,.45,0a6.17,6.17,0,0,1,2.33,0c.1,0,.17.08.17.1Z"/><path id="Path_169" data-name="Path 169" class="cls-11" d="M175.26,111.33l-1.45,1.46-1.48-1.46,1.41-7.72Z"/><rect id="Rectangle_766" data-name="Rectangle 766" class="cls-22" x="173.4" y="103.53" width="0.66" height="0.66" transform="translate(-22.56 153.27) rotate(-45)"/><g id="Group_370" data-name="Group 370"><path id="Path_170" data-name="Path 170" class="cls-23" d="M176.56,102.17l-2.14,2.15-.68-.69-.16-.17.16-.16,1.45-1.45h.14c.37,0,.72.08,1.06.14Z"/><path id="Path_171" data-name="Path 171" class="cls-23" d="M173.06,104.32l.84-.86-1.69-1.7-1.44.26Z"/></g><path id="Path_172" data-name="Path 172" class="cls-24" d="M96.38,28.4l-1.15.71a1.69,1.69,0,0,1-1.83,0l-1.15-.71A4,4,0,0,1,90.4,25V22.92l1.4-2.19,5-.16,1.48,2.22V25A4,4,0,0,1,96.38,28.4Z"/><rect id="Rectangle_767" data-name="Rectangle 767" class="cls-25" x="90.26" y="38.93" width="10.01" height="2.41" rx="0.39"/><path id="Path_173" data-name="Path 173" class="cls-20" d="M96.24,32.13c0,1.91-3.88,1.91-3.88,0a6.5,6.5,0,0,0,.55-3.07h3A7.45,7.45,0,0,0,96.24,32.13Z"/><path id="Path_174" data-name="Path 174" class="cls-20" d="M96.15,29.23l-1,.8a1.27,1.27,0,0,1-1.62,0l-1-.8a4.71,4.71,0,0,1-1.64-3.73V20.73H97.8V25.5A4.72,4.72,0,0,1,96.15,29.23Z"/><path id="Path_175" data-name="Path 175" class="cls-24" d="M90.14,24.23a6.76,6.76,0,0,1,.15-2.33,3.65,3.65,0,0,1,1.52-1.81,5.79,5.79,0,0,1,3.58-.63,3.13,3.13,0,0,1,2.45,1.34,4.85,4.85,0,0,1,.66,3.08c0,.42-.09,1.09-.09,1.09a2.35,2.35,0,0,1-1-.4,3.51,3.51,0,0,1-1.15-1.94,10.31,10.31,0,0,1-1.67,1.21s-.37-.91-.56-1.25c.12.2-1.75,1.4-2,1.52a8.94,8.94,0,0,1-2.34.93Z"/><path id="Path_176" data-name="Path 176" class="cls-26" d="M99.55,32.64l-3.31-.59h0a2,2,0,0,1-3.8,0L89,32.67A3.35,3.35,0,0,0,86.23,36V37.8h16.09V36A3.37,3.37,0,0,0,99.55,32.64Z"/><path id="Path_177" data-name="Path 177" class="cls-10" d="M95.73,41.38l-1.45,1.46-1.47-1.46,1.41-7.72Z"/><g id="Group_371" data-name="Group 371"><path id="Path_178" data-name="Path 178" class="cls-23" d="M97,32.21,94.9,34.36l-.68-.69-.16-.16.16-.17,1.45-1.45h.14l1.06.14Z"/><path id="Path_179" data-name="Path 179" class="cls-23" d="M93.54,34.36l.84-.85-1.69-1.7-1.44.25Z"/></g><path id="Path_180" data-name="Path 180" class="cls-27" d="M104.28,36.61v12H84.8v-12a.56.56,0,0,1,.56-.56h18.37A.56.56,0,0,1,104.28,36.61Z"/><path id="Path_181" data-name="Path 181" class="cls-28" d="M88.07,50.8H86.88a5.31,5.31,0,0,0-1.3.29,10.19,10.19,0,0,0-2.54.82c-.76.42-1.63,1.16-1.48,2.13s1.5.93,2.23.68c.89-.31,1.79-.48,2.66-.87.39-.17.94-.31,1.33-.48.77-.35.51-.41.93-.38Z"/><path id="Path_182" data-name="Path 182" class="cls-28" d="M102.5,51.35h1.19a6.28,6.28,0,0,1,1.3.29,10.87,10.87,0,0,1,2.55.83c.75.42,1.15.68,1,1.65s-2.34,1-3.07.7a9.13,9.13,0,0,1-1.35-.41c-.38-.17-.94-.31-1.33-.49-.77-.35-.5-.41-.93-.37Z"/><path id="Path_183" data-name="Path 183" class="cls-29" d="M88.22,53.16l-.67-2.4,16.45-6c5.52-1.54,6.9,3.4,1.38,4.94Z"/><path id="Path_184" data-name="Path 184" class="cls-29" d="M102.22,53.72l.67-2.4-16.45-6c-5.52-1.55-6.9,3.39-1.39,4.94Z"/><path id="Path_185" data-name="Path 185" class="cls-23" d="M95.83,42.31A1.29,1.29,0,1,1,94.54,41h0A1.28,1.28,0,0,1,95.83,42.31Z"/><circle id="Ellipse_24-2" data-name="Ellipse 24-2" class="cls-3" cx="14.16" cy="24.52" r="1.51"/><circle id="Ellipse_25-2" data-name="Ellipse 25-2" class="cls-4" cx="9.59" cy="24.52" r="1.51"/><circle id="Ellipse_26-2" data-name="Ellipse 26-2" class="cls-5" cx="5.01" cy="24.52" r="1.51"/><g id="Group_376" data-name="Group 376"><path id="Path_186" data-name="Path 186" class="cls-24" d="M247.27,21.67A6,6,0,0,0,245.78,25c-.07,1.41-.29,3-.49,4.41s-.39,2.89-.62,4.34c-.12.69-.61.4,0,1a7.08,7.08,0,0,0,2.61,1.71,23.59,23.59,0,0,0,3.66.32,8.12,8.12,0,0,0,2.71-.5c2.87-.94-.88,1.75,1.75-1.2.59-.67.28-.77,0-1.57a17.65,17.65,0,0,1-.66-2,15.89,15.89,0,0,1-.45-1.93,27.52,27.52,0,0,1-.59-4.14,4.54,4.54,0,0,0-.74-2.63Z"/><g id="Group_375" data-name="Group 375"><g id="Group_374" data-name="Group 374"><g id="Group_372" data-name="Group 372"><path id="Path_187" data-name="Path 187" class="cls-27" d="M250.53,49.9c-.39-2.45-1.28,3.73.82,14.11.94,4.63,1.44,9.45,2.55,13,0,0,1.79-.09,2.36-.16-.29-.1-.63-10.14-.74-13.21S255.3,49,253.83,46.2Z"/></g><g id="Group_373" data-name="Group 373"><path id="Path_188" data-name="Path 188" class="cls-27" d="M245.85,47c-1.25,3.79-1.43,12.21-1.19,16.37.16,2.84,1.3,11.56,2.23,14.14.74.08,1.47.22,2.21.31-.36,0-.08-12.83-.08-15a81.68,81.68,0,0,1,1.76-11.69c1-3.29.9-1,2.25-4.16Z"/></g></g></g><path id="Path_190" data-name="Path 190" class="cls-30" d="M255.52,32.58c-.23,6.53-.91,7.52-1.35,14.58,0,.59-8.32.45-8.32-.14-.39-6.32-1.95-8.72-1.75-14,1.88-1.4,2.36-2.07,4.06-2.21a10,10,0,0,1,2.73,0l.46,0A5.58,5.58,0,0,1,255.52,32.58Z"/><path id="Path_191" data-name="Path 191" class="cls-20" d="M251,30.87a5.88,5.88,0,0,1-.1-1.57h-1.94a4.39,4.39,0,0,1-.2,1.53s-.08,0-.13,0V31s0,0,0,0h0v1.37h2.74l0-1.48Z"/><path id="Path_192" data-name="Path 192" class="cls-20" d="M234.29,30.9c.06-.57-.36-.58-.35-1.16a6.42,6.42,0,0,0-.5-2c-.17-.27-.86-.73-.86-.39,0,.58,0,2.39,0,2.86a1.14,1.14,0,0,0,.4.91c.3.17.82,0,1.08-.14Z"/><path id="Path_193" data-name="Path 193" class="cls-20" d="M250.83,29.62l-.21.11a.83.83,0,0,1-.34.07h-.85a.83.83,0,0,1-.34-.07l-.2-.1a3,3,0,0,1-1.75-2.75V23.13h5.44v3.74A3,3,0,0,1,250.83,29.62Z"/><path id="Path_194" data-name="Path 194" class="cls-30" d="M246.71,31a7,7,0,0,0-2.33,1.19c-2.59,2.23-5.19,4.56-6.64,5.29,0,0-1.81-4.09-3.41-6.82l-1.61.39a60.41,60.41,0,0,0,3.58,8.75.92.92,0,0,0,1,.44c2.46-.44,7.54-4,9.38-4.55Z"/><path id="Path_195" data-name="Path 195" class="cls-20" d="M255.2,43.7c-.56.11-1.51.06-2.06.22s-.59.26-.59.7-.07.72.22.91c.45.31,1.73,0,2.19-.07.27-.07.71-.25.78-.55s-.26-.78-.45-1Z"/><path id="Path_196" data-name="Path 196" class="cls-30" d="M253.43,34.58c1.63,1.82,2.5,2.19,4.51,5.22a20.66,20.66,0,0,1-3,3.93l.84,1.43a25.12,25.12,0,0,0,4.81-4.42.94.94,0,0,0,.14-1.06c-1.19-2.25-4.25-8.69-8-8.68Z"/><path id="Path_197" data-name="Path 197" class="cls-24" d="M245.44,23.71,245,26c.81.45,2.68.31,4.39-1.35a13.72,13.72,0,0,0,1.42-1.33c.21.32,1.71,3.19,3.39,2.93L253.67,23a3.14,3.14,0,0,0-1.43-2.2,5.8,5.8,0,0,0-5,.08A4.32,4.32,0,0,0,245.44,23.71Z"/><path id="Path_198" data-name="Path 198" class="cls-24" d="M247.27,30.5c-.63.69,0,1.35.13,2.07s-.18,1.92-1,2.1a1.64,1.64,0,0,0-.14-2.07,2,2,0,0,1-.44-1.12c0-.47.19-.62.43-1Z"/><path id="Path_199" data-name="Path 199" class="cls-18" d="M249,76.59c.27.68.62,1,.79,1.38a1,1,0,0,1-.06.86c-.2.3-.29.28-.64.32s-.82.07-1.23.11c-1,.08-2.09.1-3.13.11h-1.57a2.48,2.48,0,0,1-.77-.06c-.13,0-.19-.11-.17-.35,0-.52.68-.59,1.06-.72a20.16,20.16,0,0,0,2.52-.63c.15-.09.81-.79,1-.84A12.89,12.89,0,0,1,249,76.59Z"/><path id="Path_200" data-name="Path 200" class="cls-18" d="M253.69,76.26a3.86,3.86,0,0,1,2.4,0,6.17,6.17,0,0,0,.53,1.32c.62.82,1.81,2.4.64,3.2s-1.91-.27-2.47-1.39c-.22-.43-.39-.89-.58-1.34Z"/><path id="Path_201" data-name="Path 201" class="cls-10" d="M251.4,32.36c-.29.37-.57.43-.72,1a4.78,4.78,0,0,0-.2,1.18,3.79,3.79,0,0,0,.38,1.28,3,3,0,0,1,.1,1.3c0-.49.45-.68.68-1a3,3,0,0,0,.48-1.22,3.86,3.86,0,0,0-.65-2.59Z"/><path id="Path_202" data-name="Path 202" class="cls-24" d="M252.72,29.31c.63.69,0,1.35-.14,2.07s.19,1.92,1,2.1a1.66,1.66,0,0,1,.15-2.07,2.08,2.08,0,0,0,.44-1.12c0-.47-.19-.62-.43-1Z"/><path id="Path_203" data-name="Path 203" class="cls-10" d="M251.66,32.42c0,.48-.2.68,0,1.24a4.92,4.92,0,0,0,.53,1.08c.3.43.69.53,1.06.81a3.06,3.06,0,0,1,.82,1c-.23-.42,0-.82,0-1.2a2.86,2.86,0,0,0-.33-1.27,3.76,3.76,0,0,0-2-1.72Z"/><path id="Path_204" data-name="Path 204" class="cls-10" d="M248.91,30.2a2.55,2.55,0,0,0-1.44.17,1.14,1.14,0,0,0-.7,1.32c.26,1,1.84,1.08,2.71,1.16a5.8,5.8,0,0,0,1.38,0c.45-.1,2.93-.3,2.07-2.15-.25-.53-.92-.42-1.34-.41a2.07,2.07,0,0,0-.61,0C250.9,31.33,248.83,31.16,248.91,30.2Z"/><circle id="Ellipse_37" data-name="Ellipse 37" class="cls-10" cx="251.47" cy="32.35" r="0.83"/></g></g></g></svg>