<svg xmlns="http://www.w3.org/2000/svg" viewBox="0 0 98.96 100.4"><defs><style>.cls-1{fill:#fb952c;}</style></defs><title>Dollar 2</title><g id="Layer_2" data-name="Layer 2"><g id="Banks_and_Savings" data-name="Banks and Savings"><path id="Icon_material-monetization-on" data-name="Icon material-monetization-on" class="cls-1" d="M49.48,0A49.86,49.86,0,0,0,0,50.21,49.86,49.86,0,0,0,49.48,100.4,49.85,49.85,0,0,0,99,50.21,49.86,49.86,0,0,0,49.48,0Zm7,80.78v9.59H43.25V80.68A18.56,18.56,0,0,1,27.07,63.61h9.7C37.26,68.88,40.83,73,49.88,73c9.7,0,11.88-4.92,11.88-8,0-4.17-2.18-8.08-13.22-10.74-12.27-3-20.68-8.13-20.68-18.43,0-8.62,6.9-14.26,15.39-16.11V10h13.2v9.78a17.68,17.68,0,0,1,14.11,17h-9.7c-.24-5.57-3.16-9.39-11-9.39C42.46,27.45,38,30.87,38,35.69c0,4.22,3.22,7,13.22,9.59s20.68,7,20.68,19.63c-.05,9.18-6.83,14.22-15.44,15.86Z"/></g></g></svg>