<svg xmlns="http://www.w3.org/2000/svg" viewBox="0 0 67.56 92.47"><defs><style>.cls-1{fill:#707070;}.cls-2{fill:#fff;}.cls-3{fill:none;}</style></defs><title>Pen 1</title><g id="Layer_2" data-name="Layer 2"><g id="Powers_Of_Attorney" data-name="Powers Of Attorney"><path class="cls-1" d="M39.77,39.66a8,8,0,1,0-7.65,2.09V92.47L0,33,8.64,12h50l8.88,21.23L36.12,92.47V41.74A7.84,7.84,0,0,0,39.77,39.66Z"/><path class="cls-2" d="M10.12,6V8h48V6Z"/><path class="cls-1" d="M36.94,36.83a3.77,3.77,0,0,1-.82.62,4.18,4.18,0,0,1-4,0,3.53,3.53,0,0,1-.83-.62,4,4,0,1,1,5.65,0Z"/><rect class="cls-1" x="10.12" width="48" height="8"/><polyline class="cls-3" points="59.12 0 58.12 0 10.12 0 8.12 0"/></g></g></svg>