<svg xmlns="http://www.w3.org/2000/svg" viewBox="0 0 100.02 95.54"><defs><style>.cls-1{fill:#fb952c;}</style></defs><title>Briefcase 2</title><g id="Layer_2" data-name="Layer 2"><g id="Business_Interests" data-name="Business Interests"><path id="Icon_material-business-center" data-name="Icon material-business-center" class="cls-1" d="M38.68,70.25V65.19h-35L3.67,85.42a10,10,0,0,0,9.94,10.12H83.68a10,10,0,0,0,10-10.05V65.19h-35v5.06ZM90,20.24H70V10.12L60,0H40L30,10.12V20.24H10A10.09,10.09,0,0,0,0,30.36V45.54A10,10,0,0,0,9.93,55.66H40V45.54H60V55.66H90a10.09,10.09,0,0,0,10-10.12V30.36A10.09,10.09,0,0,0,90,20.24Zm-30,0H40V10.12H60Z"/></g></g></svg>