<svg xmlns="http://www.w3.org/2000/svg" viewBox="0 0 141.42 71.36"><defs><style>.cls-1{fill:#707070;}</style></defs><title>Burger button 1</title><g id="Layer_2" data-name="Layer 2"><g id="Menu_Close" data-name="Menu Close"><g id="Component_37_1" data-name="Component 37 1"><g id="Line_85" data-name="Line 85"><path class="cls-1" d="M136.8,71H67.28a4.63,4.63,0,0,1,0-9.25H136.8a4.63,4.63,0,0,1,0,9.25Z"/></g><g id="Line_86" data-name="Line 86"><path class="cls-1" d="M136.8,40.14H67.28a4.62,4.62,0,0,1,0-9.24H136.8a4.62,4.62,0,0,1,0,9.24Z"/></g><g id="Line_87" data-name="Line 87"><path class="cls-1" d="M136.8,9.25H67.28a4.63,4.63,0,0,1,0-9.25H136.8a4.63,4.63,0,0,1,0,9.25Z"/></g><g id="Path_4" data-name="Path 4"><path class="cls-1" d="M31.77,71.36a4.62,4.62,0,0,1-3.56-1.67L0,35.71,27.82,1.93A4.62,4.62,0,1,1,35,7.81L12,35.68l23.33,28.1a4.63,4.63,0,0,1-3.56,7.58Z"/></g></g></g></g></svg>