<svg xmlns="http://www.w3.org/2000/svg" viewBox="0 0 123.55 100"><defs><style>.cls-1{fill:#fb952c;}</style></defs><title>Car 2</title><g id="Layer_2" data-name="Layer 2"><g id="Liabilities"><path id="Icon_awesome-car-alt" data-name="Icon awesome-car-alt" class="cls-1" d="M112.91,38.62,110,31.31l-5.13-13A28.7,28.7,0,0,0,78.12,0H45.43A28.69,28.69,0,0,0,18.67,18.33l-5.14,13-2.89,7.31A16.64,16.64,0,0,0,0,54.16v12.5A16.61,16.61,0,0,0,4.12,77.57V91.65A8.28,8.28,0,0,0,12.34,100h8.25a8.29,8.29,0,0,0,8.24-8.33V83.32H94.72v8.33A8.29,8.29,0,0,0,103,100h8.24a8.29,8.29,0,0,0,8.24-8.33V77.58a16.69,16.69,0,0,0,4.12-10.92V54.16A16.64,16.64,0,0,0,112.91,38.62ZM34,24.52a12.34,12.34,0,0,1,11.47-7.85H78.12A12.36,12.36,0,0,1,89.6,24.52l5.12,13H28.83ZM20.59,66.61a7.82,7.82,0,0,1-8.24-7.36,7.53,7.53,0,0,1,0-1A7.83,7.83,0,0,1,19.64,50a7.53,7.53,0,0,1,.95,0A16,16,0,0,1,33,62.45C33,67.43,25.54,66.61,20.59,66.61Zm82.37,0c-4.93,0-12.35.83-12.35-4.16A15.93,15.93,0,0,1,103,50a7.82,7.82,0,0,1,8.24,7.36c0,.32,0,.63,0,.95a7.81,7.81,0,0,1-7.28,8.3c-.32,0-.64,0-1,0Z"/></g></g></svg>