<svg xmlns="http://www.w3.org/2000/svg" viewBox="0 0 141.29 100"><defs><style>.cls-1{fill:#707070;}</style></defs><title>Debit card 1</title><g id="Layer_2" data-name="Layer 2"><g id="Recieved_Inheritance" data-name="Recieved Inheritance"><path id="Icon_awesome-money-check" data-name="Icon awesome-money-check" class="cls-1" d="M0,92.85A7.11,7.11,0,0,0,7,100H134.22a7.11,7.11,0,0,0,7-7.15V21.43H0ZM98.9,46.42a3.56,3.56,0,0,1,3.53-3.57h21.19a3.57,3.57,0,0,1,3.54,3.57v7.15a3.56,3.56,0,0,1-3.54,3.57H102.43a3.55,3.55,0,0,1-3.53-3.57Zm0,26.79a1.78,1.78,0,0,1,1.77-1.79h24.72a1.79,1.79,0,0,1,1.77,1.79h0v3.57a1.79,1.79,0,0,1-1.77,1.79H100.67a1.78,1.78,0,0,1-1.77-1.79h0ZM14.13,51.79A1.78,1.78,0,0,1,15.89,50H83a1.78,1.78,0,0,1,1.76,1.79h0v3.57A1.78,1.78,0,0,1,83,57.15H15.89a1.78,1.78,0,0,1-1.76-1.79h0Zm0,21.43a1.78,1.78,0,0,1,1.76-1.79H54.75a1.78,1.78,0,0,1,1.76,1.79h0v3.57a1.78,1.78,0,0,1-1.76,1.79H15.89a1.78,1.78,0,0,1-1.76-1.79h0ZM137.76,0H3.53A3.55,3.55,0,0,0,0,3.57V14.28H141.29V3.57A3.55,3.55,0,0,0,137.76,0Z"/></g></g></svg>