<svg xmlns="http://www.w3.org/2000/svg" xmlns:xlink="http://www.w3.org/1999/xlink" viewBox="0 0 253.32 197.86"><defs><style>.cls-1{fill:#bec0be;}.cls-2{fill:#e1e1e5;}.cls-3{fill:#fff;}.cls-4{fill:#f0f0f0;}.cls-5{fill:#d1d3d4;}.cls-6{fill:url(#linear-gradient);}.cls-7{fill:#fed1a2;}.cls-8{fill:#a7aaa7;}.cls-9{fill:#f8ebc7;}.cls-10{fill:url(#linear-gradient-2);}.cls-11{fill:#edcc72;}.cls-12{fill:url(#linear-gradient-3);}.cls-13{fill:url(#linear-gradient-4);}.cls-14{fill:url(#linear-gradient-5);}.cls-15{fill:#f4e0aa;}.cls-16{fill:#fb952c;}.cls-17{fill:#e7e7eb;}.cls-18{fill:#cfcfd6;}.cls-19{fill:#ffd1a2;}.cls-20{fill:url(#linear-gradient-6);}.cls-21{fill:url(#linear-gradient-7);}.cls-22{fill:#2a2f21;}.cls-23{fill:#4d534d;}.cls-24{fill:#f7fbfd;}.cls-25{fill:#2b2b72;}</style><linearGradient id="linear-gradient" x1="-1546.99" y1="-1542.7" x2="-1546.99" y2="-1449.3" gradientTransform="matrix(2.17, 0, 0, -0.51, 3425.2, -662.73)" gradientUnits="userSpaceOnUse"><stop offset="0" stop-color="#ffde39"/><stop offset="0.09" stop-color="#fec63c"/><stop offset="0.29" stop-color="#fe9843"/><stop offset="0.41" stop-color="#fe7d4b"/><stop offset="0.65" stop-color="#fe4f59"/><stop offset="1" stop-color="#ed327f"/></linearGradient><linearGradient id="linear-gradient-2" x1="-2612.31" y1="148.51" x2="-2612.31" y2="146.42" gradientTransform="matrix(104.65, 0, 0, -34.26, 273441.1, 5169.43)" gradientUnits="userSpaceOnUse"><stop offset="0" stop-color="#ffde39"/><stop offset="0.33" stop-color="#fec63c"/><stop offset="1" stop-color="#fe9843"/></linearGradient><linearGradient id="linear-gradient-3" x1="-2612.31" y1="147.51" x2="-2612.31" y2="145.42" gradientTransform="matrix(104.65, 0, 0, -34.26, 273441.1, 5134.83)" xlink:href="#linear-gradient-2"/><linearGradient id="linear-gradient-4" x1="-2559.51" y1="143.67" x2="-2559.51" y2="141.16" gradientTransform="matrix(31.3, 0, 0, -28.53, 80188.84, 4179.74)" xlink:href="#linear-gradient-2"/><linearGradient id="linear-gradient-5" x1="-2559.51" y1="142.35" x2="-2559.51" y2="143.53" gradientTransform="matrix(31.3, 0, 0, -28.53, 80188.84, 4179.74)" xlink:href="#linear-gradient-2"/><linearGradient id="linear-gradient-6" x1="-2578.78" y1="134.63" x2="-2578.06" y2="134.63" gradientTransform="matrix(41.28, 0, 0, -22.51, 106560.87, 3037.98)" xlink:href="#linear-gradient-2"/><linearGradient id="linear-gradient-7" x1="-2355.65" y1="39.95" x2="-2355.67" y2="39.12" gradientTransform="matrix(8.18, 0, 0, -5.72, 19501.57, 327.27)" gradientUnits="userSpaceOnUse"><stop offset="0" stop-color="#ffbc53"/><stop offset="0.08" stop-color="#f8c15d"/><stop offset="0.23" stop-color="#f2c769"/><stop offset="0.43" stop-color="#eecb70"/><stop offset="1" stop-color="#edcc72"/></linearGradient></defs><g id="Layer_2" data-name="Layer 2"><g id="Layer_4" data-name="Layer 4"><path id="Path_206" data-name="Path 206" class="cls-1" d="M206.29,181.56V76.65a10.14,10.14,0,0,0-10.15-10.14H25.63A10.14,10.14,0,0,0,15.49,76.65h0V186.47H206.3Zm-12.71-6.39H28.19V80.86H193.58Z"/><g id="Group_377" data-name="Group 377"><path id="Path_207" data-name="Path 207" class="cls-2" d="M209.63,197.86H12.15a12.29,12.29,0,0,1-12.08-10h0a3.77,3.77,0,0,1,3-4.41,4.14,4.14,0,0,1,.7-.06H218a3.77,3.77,0,0,1,3.77,3.77,3.33,3.33,0,0,1-.07.7h0A12.3,12.3,0,0,1,209.63,197.86Z"/></g><path id="Path_208" data-name="Path 208" class="cls-3" d="M138.57,189.65H83.21a2,2,0,0,1-2-2h0v-4.31h59.32v4.31A2,2,0,0,1,138.57,189.65Z"/><g id="Group_380" data-name="Group 380"><rect id="Rectangle_768" data-name="Rectangle 768" class="cls-3" x="28.19" y="80.86" width="165.39" height="94.31"/><g id="Group_379" data-name="Group 379"><rect id="Rectangle_769" data-name="Rectangle 769" class="cls-4" x="38.75" y="124.98" width="26.38" height="43.3"/><rect id="Rectangle_770" data-name="Rectangle 770" class="cls-4" x="69.02" y="143.64" width="114" height="24.64"/></g></g><path id="Path_209" data-name="Path 209" class="cls-2" d="M101.84,110v65.21c5.14,1.43,12-.38,17.56.5L117.86,110Z"/><path id="Path_210" data-name="Path 210" class="cls-1" d="M72,27.17c-1,.17-2,.38-3,.64A33.29,33.29,0,0,0,44.2,60v52.75H99.84V60A33.29,33.29,0,0,0,72,27.17Z"/><path id="Path_211" data-name="Path 211" class="cls-5" d="M70.52,27.45h0Z"/><path id="Path_212" data-name="Path 212" class="cls-6" d="M69,27.81c.49-.13,1-.25,1.47-.35C70,27.56,69.53,27.68,69,27.81Z"/><path id="Path_213" data-name="Path 213" class="cls-7" d="M152.72,26.79h-84a33.12,33.12,0,0,1,3.34.37c-.5.08-1,.18-1.5.28.5-.1,1-.2,1.5-.28a32.76,32.76,0,0,1,9.81,3.26h67.25a33.27,33.27,0,0,1,33.28,33.26h0v49.07H186V60.05A33.27,33.27,0,0,0,152.72,26.79Z"/><path id="Path_214" data-name="Path 214" class="cls-5" d="M68.69,26.8l.35,1c.49-.13,1-.25,1.47-.35h0c.5-.11,1-.2,1.51-.29C70.93,27,69.81,26.87,68.69,26.8Z"/><path id="Path_215" data-name="Path 215" class="cls-8" d="M68.69,26.8c-.64,0-1.27-.07-1.92-.08A33.29,33.29,0,0,0,33.7,60v52.75H44.2V60a33.29,33.29,0,0,1,24.85-32.2c.48-.13,1-.25,1.46-.35h0c.49-.11,1-.2,1.5-.29C70.93,27,69.81,26.87,68.69,26.8Z"/><path id="Path_216" data-name="Path 216" class="cls-9" d="M108.91,112.19a2,2,0,0,0,.62-1.45V68.39a2,2,0,0,0-.62-1.45L84.09,89.56Z"/><path id="Path_218" data-name="Path 218" class="cls-9" d="M38.07,66.93a2.05,2.05,0,0,0-.62,1.46v42.34a2.05,2.05,0,0,0,.62,1.46L62.9,89.56Z"/><path id="Path_219" data-name="Path 219" class="cls-10" d="M84.09,89.56l-10.6,9.66L62.9,89.56,38.07,112.19a2,2,0,0,0,1.4.57h68a2,2,0,0,0,1.4-.57Z"/><path id="Path_220" data-name="Path 220" class="cls-11" d="M84.09,89.56l-10.6,9.66L62.9,89.56,38.07,112.19a2,2,0,0,0,1.4.57h68a2,2,0,0,0,1.4-.57Z"/><path id="Path_221" data-name="Path 221" class="cls-12" d="M73.49,79.91l10.6,9.65,24.82-22.62a2,2,0,0,0-1.4-.57h-68a2,2,0,0,0-1.4.57L62.9,89.56Z"/><path id="Path_222" data-name="Path 222" class="cls-13" d="M62.9,89.56l10.59,9.66,10.6-9.66-10.6-9.65Z"/><path id="Path_223" data-name="Path 223" class="cls-14" d="M62.9,89.56l10.59,9.66,10.6-9.66-10.6-9.65Z"/><path id="Path_224" data-name="Path 224" class="cls-15" d="M107.51,66.37h-68a2,2,0,0,0-1.4.57L62.9,89.56l10.59,9.66,10.6-9.66,24.82-22.62A2,2,0,0,0,107.51,66.37Z"/><path id="Path_225" data-name="Path 225" class="cls-16" d="M149.08,30.43H81.83A33.27,33.27,0,0,1,99.85,60v52.75h82.51V63.69a33.26,33.26,0,0,0-33.28-33.26Z"/><path id="Path_226" data-name="Path 226" class="cls-17" d="M125.38,63.73h0a3.5,3.5,0,0,1-3.49-3.5h0V3.5a3.5,3.5,0,0,1,3.5-3.5h3.13a.36.36,0,0,1,.36.36V60.23a3.5,3.5,0,0,1-3.49,3.5Z"/><path id="Path_227" data-name="Path 227" class="cls-18" d="M127.65,60.16a2.27,2.27,0,1,1-2.27-2.27,2.27,2.27,0,0,1,2.27,2.27Z"/><path id="Path_228" data-name="Path 228" class="cls-19" d="M151.65,0h-2.52l-7,7.26,7.69,8H121.89V16h29.76L144,8Z"/><path id="Path_229" data-name="Path 229" class="cls-20" d="M142.14,7.26l7-7.26H125a3.15,3.15,0,0,0-3.14,3.15h0V15.24h27.94Z"/><path id="Path_230" data-name="Path 230" class="cls-16" d="M142.14,7.26l7-7.26H125a3.15,3.15,0,0,0-3.14,3.15h0V15.24h27.94Z"/><path id="Path_231" data-name="Path 231" class="cls-21" d="M230.35,101.89h-5.54a6.71,6.71,0,0,0,.78-3.87h4.2A7.06,7.06,0,0,0,230.35,101.89Z"/><path id="Path_232" data-name="Path 232" class="cls-22" d="M234.65,192.54c-.51,1.23-1.17,1.73-1.48,2.52a1.71,1.71,0,0,0,.11,1.57c.38.55.55.5,1.21.58s1.54.13,2.31.19c2,.16,3.92.2,5.89.21h2.95a5.91,5.91,0,0,0,1.45-.11c.24-.06.34-.21.32-.65,0-.94-1.3-1.08-2-1.3-1.29-.42-3.7-.62-4.72-1.16-.3-.16-1.54-1.45-1.84-1.55A25.05,25.05,0,0,0,234.65,192.54Z"/><path id="Path_233" data-name="Path 233" class="cls-22" d="M220.81,192.54c.51,1.23,1.17,1.73,1.48,2.52a1.71,1.71,0,0,1-.11,1.57c-.37.55-.55.5-1.21.58s-1.53.13-2.31.19c-1.95.16-3.92.2-5.89.21h-2.94a6,6,0,0,1-1.46-.11c-.23-.06-.34-.21-.32-.65,0-.94,1.3-1.08,2-1.3,1.3-.42,3.71-.62,4.72-1.16.3-.16,1.54-1.45,1.84-1.55A25.05,25.05,0,0,1,220.81,192.54Z"/><path id="Path_234" data-name="Path 234" class="cls-23" d="M237.57,135.58l.13-.12-20.25-.28v.2c0,2.63-3.83,41.59-1,57.78l4.47-.16c1.64-7.85,5.51-34.95,6.69-42.32,1.18,7.38,5.34,34.48,7,42.33l4.44.15C241.9,176.16,237.57,135.58,237.57,135.58Z"/><path id="Path_236" data-name="Path 236" class="cls-11" d="M229.77,98.45l-.49.22a1.83,1.83,0,0,1-.76.17h-1.91a1.84,1.84,0,0,1-.77-.17l-.48-.22a6.68,6.68,0,0,1-3.94-6.06V84.14h12.32v8.24A6.72,6.72,0,0,1,229.77,98.45Z"/><g id="Group_387" data-name="Group 387"><g id="Group_386" data-name="Group 386"><path id="Path_237" data-name="Path 237" class="cls-23" d="M221.53,93.13a8.17,8.17,0,0,1-.09-1.4c0-.27,0-.54,0-.81s0-2.06,0-2.78a3.65,3.65,0,0,1,.88-2.16,2.31,2.31,0,0,1,.89-.65c1.08-.4-.17,1,.2,1a6.6,6.6,0,0,0,2.23-1.38c.35,0-.34,1.68-.25,1.7A8.86,8.86,0,0,0,232,85.46c.4-.28-.06,1.13.46,1.71s1.19.36,1.23,1c.1,1.9,0,3.22,0,5.2a8.38,8.38,0,0,0,1.79-4.9,8.5,8.5,0,0,0-1.18-5.07l1.23-.27c-.55-1.75-3.39-2.5-5.27-2.35a1.88,1.88,0,0,1,1.12-.75c-3.87-1.48-7.35,1.86-7.48,1.82a5.12,5.12,0,0,0-2,.17,3.49,3.49,0,0,0-1.66,1.79,9.94,9.94,0,0,0-.52,3.75,18.62,18.62,0,0,0,.66,3.77,3.87,3.87,0,0,0,.54,1.19Z"/></g></g><path id="Path_238" data-name="Path 238" class="cls-24" d="M223.82,117.56h-5.37a1.07,1.07,0,0,1-1.07-1h0v-3.85a1.05,1.05,0,0,1,1.07-1h5.37a1,1,0,0,1,1.06,1v3.85A1.06,1.06,0,0,1,223.82,117.56Z"/><path id="Path_239" data-name="Path 239" class="cls-25" d="M221.93,114.41a.82.82,0,1,1-1.64,0,.81.81,0,0,1,.8-.84h0A.8.8,0,0,1,221.93,114.41Z"/><path id="Path_240" data-name="Path 240" class="cls-16" d="M240,103.94c-.45,12.33-1.33,15.87-2.38,32.08,0,1.24-20.55,1-20.55-.28-.83-13.3-3-20.51-2.51-31.57A41.78,41.78,0,0,1,222,102c.73-.13,9.79-.14,10.27-.07A34.57,34.57,0,0,1,240,103.94Z"/><path id="Path_241" data-name="Path 241" class="cls-24" d="M227.21,107.22l-5.16-5.28c.72-.12,1.48-.22,2.3-.28h.09a37,37,0,0,1,5.37,0l1,.08c.52,0,1,.1,1.49.17Z"/><path id="Path_242" data-name="Path 242" class="cls-11" d="M215.5,130.15c1.21.22,3.26.11,4.45.45.91.26,1.28.56,1.28,1.48,0,.68.14,1.5-.47,1.91-1,.64-3.76.12-4.75-.15-.57-.15-1.53-.53-1.68-1.16s.56-1.63,1-2.1Z"/><path id="Path_243" data-name="Path 243" class="cls-16" d="M219.33,109.58c-3.53,3.84-8.44,11.46-9.76,12.36a43.13,43.13,0,0,0,6.44,8.27l-1.8,3a68.6,68.6,0,0,1-11.66-10,1.89,1.89,0,0,1-.31-2.21c2.45-4.68,9.57-17.17,13.36-17.06Z"/><path id="Path_244" data-name="Path 244" class="cls-11" d="M239.85,130.15c-1.22.22-3.26.11-4.45.45-.92.26-1.28.56-1.28,1.48,0,.68-.15,1.5.47,1.91,1,.64,3.76.12,4.75-.15.57-.15,1.53-.53,1.68-1.16s-.56-1.63-1-2.1Z"/><path id="Path_245" data-name="Path 245" class="cls-16" d="M236,109.58c3.53,3.84,8.44,11.46,9.76,12.36a43.13,43.13,0,0,1-6.44,8.27l1.8,3a69.31,69.31,0,0,0,11.65-10,1.92,1.92,0,0,0,.3-2.25c-2.57-4.71-10.23-17.3-14-17.2Z"/></g></g></svg>