<svg xmlns="http://www.w3.org/2000/svg" viewBox="0 0 82.62 102.51"><defs><style>.cls-1{fill:#fb952c;}</style></defs><title>Flag 2</title><g id="Layer_2" data-name="Layer 2"><g id="UK_British_Isles" data-name="UK &amp; British Isles"><g id="Icon_feather-flag" data-name="Icon feather-flag"><g id="Path_16" data-name="Path 16"><path class="cls-1" d="M82.62,6.47V66.18a1.46,1.46,0,0,1-.44,1.06c-.22.22-5.59,5.42-21,5.42-7.76,0-14.22-2.59-20.46-5.09S28.59,62.7,21.41,62.7C9.79,62.7,4.48,65.83,3,66.89V101a1.5,1.5,0,0,1-3,0V6.47A1.52,1.52,0,0,1,.44,5.41C.67,5.19,6,0,21.41,0c7.75,0,14.21,2.58,20.46,5.08S54,10,61.22,10c14,0,18.81-4.5,18.85-4.55a1.53,1.53,0,0,1,1.64-.3A1.49,1.49,0,0,1,82.62,6.47Z"/></g></g></g></g></svg>