<svg xmlns="http://www.w3.org/2000/svg" viewBox="0 0 100 75.94"><defs><style>.cls-1{fill:#707070;}</style></defs><title>Graph 1</title><g id="Layer_2" data-name="Layer 2"><g id="Stocks_Shares" data-name="Stocks &amp; Shares"><path id="Icon_awesome-chart-area" data-name="Icon awesome-chart-area" class="cls-1" d="M97.65,63.29A2.37,2.37,0,0,1,100,65.67v7.9a2.36,2.36,0,0,1-2.35,2.37H2.35A2.36,2.36,0,0,1,0,73.57V2.37A2.36,2.36,0,0,1,2.35,0h7.8a2.36,2.36,0,0,1,2.34,2.37V63.29ZM72.79,18.89,56.25,30.06,39.59,7.57a2.33,2.33,0,0,0-3.26-.51,2.29,2.29,0,0,0-.64.71l-17,28.62V57h75L76.17,19.81a2.33,2.33,0,0,0-3.11-1.08Z"/></g></g></svg>