<svg xmlns="http://www.w3.org/2000/svg" viewBox="0 0 141.42 85.7"><defs><style>.cls-1{fill:#707070;}</style></defs><title>Handshake 1</title><g id="Layer_2" data-name="Layer 2"><g id="Trusts"><path id="Icon_awesome-handshake" data-name="Icon awesome-handshake" class="cls-1" d="M96.06,0h-19A7.05,7.05,0,0,0,72.3,1.89L50.58,22l-.06.09A9,9,0,0,0,50,34.54a9.16,9.16,0,0,0,12.4.6s.07,0,.09,0L80.19,18.76a3.52,3.52,0,0,1,5,.21h0A3.6,3.6,0,0,1,85,24L79.2,29.36l32.17,26.37a15.7,15.7,0,0,1,1.74,1.72V14.28L101.05,2.1A7,7,0,0,0,96.06,0Zm24.15,14.32v50a7.1,7.1,0,0,0,7.07,7.13h14.14V14.32Zm10.6,50a3.57,3.57,0,1,1,3.54-3.6v0a3.56,3.56,0,0,1-3.54,3.56ZM0,71.39H14.14a7.09,7.09,0,0,0,7.07-7.12V14.32H0ZM10.61,57.14a3.57,3.57,0,1,1-3.54,3.6v0A3.57,3.57,0,0,1,10.61,57.14Zm96.32,4.15-33-27L67.3,40.38a15.82,15.82,0,0,1-22.36-.87l-.11-.11a16.18,16.18,0,0,1,1-22.69L63.88,0H45.36a7,7,0,0,0-5,2.1L28.28,14.28v50h4l20,18.25A14,14,0,0,0,72.1,80.56a.76.76,0,0,0,.11-.14l.05,0,3.95,3.46A8.17,8.17,0,0,0,87.7,82.72l.07-.09L94.71,74l1.19,1a7,7,0,0,0,9.88-1l.06-.09,2.1-2.61a7.19,7.19,0,0,0-1-10.06Z"/></g></g></svg>