<svg xmlns="http://www.w3.org/2000/svg" viewBox="0 0 98.88 100.18"><defs><style>.cls-1{fill:#707070;}</style></defs><title>Lifebouy 1</title><g id="Layer_2" data-name="Layer 2"><g id="Life_assurance" data-name="Life assurance"><g id="Icon_awesome-life-ring" data-name="Icon awesome-life-ring"><path class="cls-1" d="M49.44,0A49.83,49.83,0,0,0,0,50.09a49.84,49.84,0,0,0,49.44,50.09A49.83,49.83,0,0,0,98.88,50.09v-.31A49.83,49.83,0,0,0,49.44,0ZM75,15.25a43.5,43.5,0,0,1,8.82,9L71.4,36.78a26.25,26.25,0,0,0-8.83-9Zm0,69.66L62.58,72.34A26.2,26.2,0,0,0,71.4,63.4L83.8,76ZM23.89,15.26,36.3,27.83a26.14,26.14,0,0,0-8.82,9L15.07,24.2A43.45,43.45,0,0,1,23.89,15.26Zm0,69.66A43.45,43.45,0,0,1,15.07,76L27.48,63.4a26.2,26.2,0,0,0,8.82,8.94ZM49.44,69.31h-.25A19.22,19.22,0,0,1,46.75,31a20.59,20.59,0,0,1,2.47-.15,19,19,0,0,1,12.59,4.73A19.23,19.23,0,0,1,68.4,49.85v.24a19,19,0,0,1-19,19.22Z"/></g></g></g></svg>