<svg xmlns="http://www.w3.org/2000/svg" viewBox="0 0 59.81 100.03"><defs><style>.cls-1{fill:#fb952c;}</style></defs><title>People 1</title><g id="Layer_2" data-name="Layer 2"><g id="Joint_assets" data-name="Joint assets"><path class="cls-1" d="M17.53,57.58l-2.29,5.53h8.23L29.38,100H14.29L6.61,52.09H0l6.61-16h22a15.55,15.55,0,0,0,9.16,5.35H24.2l-1,2.47Z"/><path class="cls-1" d="M25,26.18c0,.22,0,.44,0,.66a12.68,12.68,0,0,1-2.4.22A13.53,13.53,0,1,1,35.92,11.31,15.6,15.6,0,0,0,25,26.18Z"/><polygon class="cls-1" points="59.81 59.11 54.16 59.11 47.59 100.03 33.44 100.03 32.15 92 26.88 59.11 21.23 59.11 26.88 45.47 54.16 45.47 59.81 59.11"/><path class="cls-1" d="M52.07,26.18A11.55,11.55,0,0,1,40.52,37.73a11.9,11.9,0,0,1-1.34-.08A11.54,11.54,0,0,1,29,26.18c0-.25,0-.48,0-.72h0a11.57,11.57,0,0,1,7-9.89,11.42,11.42,0,0,1,4.57-.94A11.56,11.56,0,0,1,52.07,26.18Z"/></g></g></svg>