<svg xmlns="http://www.w3.org/2000/svg" viewBox="0 0 134.58 120.71"><defs><style>.cls-1{fill:#707070;}</style></defs><title>Piggybank 1</title><g id="Layer_2" data-name="Layer 2"><g id="Pensions"><path id="Icon_awesome-piggy-bank" data-name="Icon awesome-piggy-bank" class="cls-1" d="M130.86,52.68H124a37.9,37.9,0,0,0-8.74-12.4l4.42-17.84h-7.46a22.25,22.25,0,0,0-17.07,8.1A37.15,37.15,0,0,0,89.75,30H59.81A37.54,37.54,0,0,0,23.16,60.24H13.07a5.7,5.7,0,0,1-5.48-6.81,5.77,5.77,0,0,1,5.73-4.53h.23A1.42,1.42,0,0,0,15,47.48V42.75a1.41,1.41,0,0,0-1.41-1.41A13.43,13.43,0,0,0,.12,52.82,13.19,13.19,0,0,0,11.41,67.67a11.9,11.9,0,0,0,1.69.12h9.35a37.8,37.8,0,0,0,15,30.08v19.06a3.78,3.78,0,0,0,3.74,3.78h15a3.77,3.77,0,0,0,3.74-3.78V105.59H89.76v11.34a3.76,3.76,0,0,0,3.74,3.78h14.91a3.78,3.78,0,0,0,3.74-3.78V97.87a37.14,37.14,0,0,0,7.31-7.4h11.38a3.76,3.76,0,0,0,3.74-3.78V56.47A3.77,3.77,0,0,0,130.86,52.68ZM100.94,67.8A3.78,3.78,0,1,1,104.68,64v0A3.77,3.77,0,0,1,100.94,67.8ZM59.81,22.44H89.73c1.26,0,2.48.1,3.71.19v-.19a22.44,22.44,0,1,0-44.87,0h0c0,.5.11,1,.14,1.46A44.21,44.21,0,0,1,59.81,22.44Z"/></g></g></svg>