<svg xmlns="http://www.w3.org/2000/svg" viewBox="0 0 78.99 105"><defs><style>.cls-1{fill:#fb952c;}</style></defs><title>Pound 2</title><g id="Layer_2" data-name="Layer 2"><g id="Nil_Rate_Band" data-name="Nil Rate Band"><path class="cls-1" d="M35.84,86.67H71V105H0V86.67H14.17V61.25H0V44.59H14.17V33.2A35.94,35.94,0,0,1,16.1,21.85a31.43,31.43,0,0,1,17-18.77A37.35,37.35,0,0,1,48.89,0,51.13,51.13,0,0,1,64.08,2.27a34.74,34.74,0,0,1,13,7.26L79,11.23,64.31,27l-1.82-1.67a22.43,22.43,0,0,0-6-3.93,17.31,17.31,0,0,0-7-1.39,13.06,13.06,0,0,0-5.78,1.21,13.6,13.6,0,0,0-4.29,3.22A13.45,13.45,0,0,0,36.74,29a17.37,17.37,0,0,0-.9,5.59v10h22.5V61.25H35.84Z"/></g></g></svg>