<svg xmlns="http://www.w3.org/2000/svg" viewBox="0 0 103 97.16"><defs><style>.cls-1{fill:#fb952c;}</style></defs><title>Presents 2</title><g id="Layer_2" data-name="Layer 2"><g id="Lifetime_Gifts" data-name="Lifetime Gifts"><g id="Icon_feather-gift" data-name="Icon feather-gift"><g id="Path_31" data-name="Path 31"><path class="cls-1" d="M64.28,38.72V97.16h-9V69.44h4.64a1.5,1.5,0,0,0,1.5-1.5V52.58a1.5,1.5,0,0,0-1.5-1.5H49.83a9.16,9.16,0,0,0,0-12.36Z"/><rect class="cls-1" x="67.28" y="38.72" width="27.97" height="58.44"/></g><g id="Path_32" data-name="Path 32"><rect class="cls-1" x="28.56" y="19.36" width="35.72" height="16.36"/><rect class="cls-1" x="67.28" y="19.36" width="35.72" height="16.36"/></g><g id="Path_34" data-name="Path 34"><path class="cls-1" d="M63.85,16.36H48.35A8.18,8.18,0,0,1,48.35,0C58.19,0,62.53,11.78,63.85,16.36Z"/></g><g id="Path_35" data-name="Path 35"><path class="cls-1" d="M91.38,8.18a8.19,8.19,0,0,1-8.18,8.18H67.71C69,11.78,73.36,0,83.2,0A8.19,8.19,0,0,1,91.38,8.18Z"/></g></g><g id="Icon_feather-gift-2" data-name="Icon feather-gift"><g id="Path_31-2" data-name="Path 31"><rect class="cls-1" x="30.72" y="69.44" width="21.58" height="27.72"/><path class="cls-1" d="M6.15,69.44V97.16H27.72V69.44Z"/></g><g id="Path_32-2" data-name="Path 32"><rect class="cls-1" y="54.08" width="27.72" height="12.36"/><rect class="cls-1" x="30.72" y="54.08" width="27.72" height="12.36"/></g><g id="Path_34-2" data-name="Path 34"><path class="cls-1" d="M27.28,51.08H15.4a6.18,6.18,0,0,1,0-12.36C22.73,38.72,26.13,47.27,27.28,51.08Z"/></g><g id="Path_35-2" data-name="Path 35"><path class="cls-1" d="M49.23,44.9a6.19,6.19,0,0,1-6.18,6.18H31.17a28.7,28.7,0,0,1,2.13-5.22,19.11,19.11,0,0,1,1.5-2.4,14,14,0,0,1,1.5-1.76,9.37,9.37,0,0,1,6.75-3A6.19,6.19,0,0,1,49.23,44.9Z"/></g></g></g></g></svg>