<svg xmlns="http://www.w3.org/2000/svg" viewBox="0 0 96.72 96.73"><defs><style>.cls-1{fill:#fb952c;}.cls-2{fill:#fff;}</style></defs><title>Present 2</title><g id="Layer_2" data-name="Layer 2"><g id="Gifts"><g id="Icon_feather-gift" data-name="Icon feather-gift"><g id="Path_31" data-name="Path 31"><rect class="cls-1" x="9.97" y="49.87" width="36.89" height="46.86"/><rect class="cls-1" x="49.86" y="49.87" width="36.89" height="46.86"/></g><g id="Path_32" data-name="Path 32"><rect class="cls-1" y="24.93" width="46.86" height="21.94"/><rect class="cls-1" x="49.86" y="24.93" width="46.86" height="21.94"/><path class="cls-2" d="M48,21.93A.11.11,0,0,1,48,22a1,1,0,0,1,.35-.05Z"/></g><g id="Path_34" data-name="Path 34"><path class="cls-1" d="M46.44,21.93H25.92A11,11,0,0,1,25.92,0C39.3,0,44.93,16.4,46.44,21.93Z"/><path class="cls-2" d="M48,21.93A.11.11,0,0,1,48,22a1,1,0,0,1,.35-.05Z"/></g><g id="Path_35" data-name="Path 35"><path class="cls-1" d="M81.76,11a11,11,0,0,1-11,11H50.27C51.78,16.4,57.4,0,70.8,0A11,11,0,0,1,81.76,11Z"/><path class="cls-2" d="M48,21.93A.11.11,0,0,1,48,22a1,1,0,0,1,.35-.05Z"/></g></g></g></g></svg>