<svg xmlns="http://www.w3.org/2000/svg" viewBox="0 0 99.74 101"><defs><style>.cls-1{fill:#fb952c;}</style></defs><title>World 2</title><g id="Layer_2" data-name="Layer 2"><g id="Tax_Havens" data-name="Tax Havens"><g id="Icon_metro-earth" data-name="Icon metro-earth"><path class="cls-1" d="M49.88,0h0a50.5,50.5,0,0,0,0,101A50.23,50.23,0,0,0,99.74,50.51,50.24,50.24,0,0,0,49.88,0Zm0,93.75h0a41.92,41.92,0,0,1-16.21-3.24l22-25.1A3.63,3.63,0,0,0,56.57,63V53.63A3.62,3.62,0,0,0,53,50C42.46,50,31.3,39,30.83,38.57A3.62,3.62,0,0,0,28.3,37.5H15.93a3.61,3.61,0,0,0-3.59,3.63V59.88a3.64,3.64,0,0,0,2,3.24l10.36,5.25v17A43.66,43.66,0,0,1,11.15,32.25h11a3.57,3.57,0,0,0,2.52-1.06L37,18.69A3.63,3.63,0,0,0,38,16.13V8.94A42.21,42.21,0,0,1,67.91,11.3l-.63.6a19.53,19.53,0,0,0,0,27.23,19,19,0,0,0,13.44,5.64h.52a74.07,74.07,0,0,1-.9,35.72c0,.13-.06.27-.08.41A42.56,42.56,0,0,1,50.37,93.77v0Z"/></g></g></g></svg>